# Blender 4.3.2
# www.blender.org
mtllib explosion_super.mtl
o Icosphere.001
v 0.073357 -2.730855 3.305467
v 2.569564 -0.733544 4.838994
v -0.906742 -1.609840 6.217888
v -2.721705 -1.015592 2.650114
v -0.480930 -0.862579 1.271618
v 3.412884 -1.028022 1.657225
v 0.465442 0.741777 4.304819
v -1.178656 0.759294 3.739949
v -2.684180 1.183449 1.233020
v 0.367970 0.611113 1.516764
v 2.860409 1.991692 2.906059
v -0.224396 2.542757 2.261486
v -0.310062 -1.737287 3.871409
v 0.894987 -1.756259 3.467195
v 0.493129 -0.958610 4.288113
v 1.437970 -0.935770 2.839970
v 0.727431 -1.483858 2.249937
v -0.847393 -1.472929 2.824132
v -1.206879 -0.970891 3.748859
v -0.366771 -2.035215 0.618086
v -1.059670 -0.865795 2.040541
v 0.415998 -0.929939 1.495474
v 1.638463 -0.009439 4.439419
v 1.570007 -0.039020 2.295396
v 0.051897 -0.030474 4.561642
v 1.335151 1.440082 4.500195
v -1.466892 0.386831 3.451722
v -1.065869 -0.019133 4.293470
v -0.881205 -0.015118 1.592406
v -1.971330 -0.019345 2.181037
v 0.877469 -0.133225 1.534967
v 0.015233 -0.020854 0.165026
v 1.071163 0.775879 3.727617
v -0.570231 1.146913 6.313515
v -1.395345 0.861725 2.844895
v -0.411944 0.819753 1.565247
v 0.860641 0.657773 2.175089
v 0.369501 1.785594 3.889367
v 0.761486 1.334000 2.900357
v -0.923232 1.841673 3.501060
v -0.741539 1.551850 2.294752
v 0.326204 1.627563 2.497480
vn 0.2876 -0.3878 0.8757
vn 0.6671 -0.6778 -0.3091
vn -0.8210 -0.4868 0.2984
vn -0.8025 -0.5962 -0.0229
vn 0.7316 -0.6213 -0.2806
vn 0.6616 0.6100 -0.4362
vn 0.7657 0.1822 0.6169
vn -0.5872 0.0641 0.8069
vn -0.7899 -0.1478 -0.5952
vn 0.0545 0.0179 -0.9984
vn 0.4784 0.1365 -0.8675
vn -0.1453 0.7567 0.6375
vn -0.7701 0.6293 0.1046
vn -0.8309 -0.1952 -0.5210
vn 0.3221 0.8582 -0.3997
vn 0.6403 0.3341 0.6917
vn -0.9468 0.2640 0.1841
vn -0.4105 0.7737 0.4827
vn 0.1406 0.6904 -0.7096
vn -0.2172 0.6990 -0.6814
vn 0.7488 0.2979 -0.5920
vn 0.7381 0.5408 -0.4034
vn 0.6563 0.5377 -0.5293
vn 0.1940 -0.1339 -0.9718
vn 0.0795 0.7213 -0.6880
vn 0.2118 0.7360 -0.6430
vn -0.8646 0.4433 -0.2367
vn -0.7948 0.5519 -0.2523
vn -0.9267 0.2752 0.2558
vn -0.0961 0.8886 0.4484
vn -0.0311 0.9694 0.2434
vn 0.8814 0.2424 0.4055
vn 0.7710 0.6367 0.0149
vn 0.8244 0.5616 0.0703
vn -0.2400 0.7607 0.6031
vn 0.2735 0.1135 -0.9552
vn 0.6040 0.5091 -0.6132
vn 0.6942 0.4617 -0.5522
vn 0.2031 0.8656 -0.4577
vn -0.7691 0.4165 -0.4847
vn 0.1276 -0.1038 -0.9864
vn -0.7772 0.0346 0.6283
vn -0.8840 0.4130 0.2189
vn -0.8505 0.4582 0.2583
vn -0.9737 0.0204 0.2271
vn -0.1333 -0.8438 0.5198
vn 0.8282 -0.2825 0.4840
vn -0.4871 0.7376 -0.4676
vn 0.8618 0.1999 -0.4663
vn -0.0806 0.6368 0.7668
vn 0.7496 0.5026 -0.4306
vn 0.7554 -0.4123 -0.5093
vn 0.0837 -0.8108 -0.5792
vn -0.3382 -0.6980 -0.6313
vn -0.4454 -0.3424 -0.8273
vn -0.3224 -0.1935 -0.9266
vn -0.8248 0.2434 0.5103
vn -0.9152 -0.0893 0.3930
vn -0.9882 0.0677 0.1376
vn -0.5597 0.5155 0.6489
vn 0.2387 -0.1684 0.9564
vn -0.2569 0.0047 0.9664
vn 0.8465 -0.5320 -0.0197
vn 0.9862 -0.1630 -0.0292
vn 0.4844 0.4009 0.7776
vn 0.0057 -0.8049 -0.5933
vn 0.8436 -0.2028 -0.4971
vn 0.2456 0.4900 -0.8364
vn -0.7743 0.2489 -0.5818
vn -0.9000 -0.4272 -0.0872
vn -0.1413 -0.8007 -0.5821
vn -0.2524 -0.8881 0.3841
vn -0.6541 -0.7417 0.1484
vn -0.6354 -0.7628 -0.1202
vn 0.2489 -0.8406 0.4811
vn 0.7116 -0.6584 -0.2453
vn 0.7615 -0.6022 -0.2396
vn 0.6264 -0.7533 0.2002
vn 0.2362 -0.6366 0.7342
vn -0.0975 -0.7372 0.6686
vt 0.181819 0.000000
vt 0.227273 0.078731
vt 0.136365 0.078731
vt 0.272728 0.157461
vt 0.318182 0.078731
vt 0.363637 0.157461
vt 0.909091 0.000000
vt 0.954545 0.078731
vt 0.863636 0.078731
vt 0.727273 0.000000
vt 0.772727 0.078731
vt 0.681818 0.078731
vt 0.545455 0.000000
vt 0.590909 0.078731
vt 0.500000 0.078731
vt 0.318182 0.236191
vt 0.090910 0.157461
vt 0.181819 0.157461
vt 0.136365 0.236191
vt 0.818182 0.157461
vt 0.909091 0.157461
vt 0.863636 0.236191
vt 0.636364 0.157461
vt 0.727273 0.157461
vt 0.681818 0.236191
vt 0.454546 0.157461
vt 0.545455 0.157461
vt 0.500000 0.236191
vt 0.227273 0.236191
vt 0.045455 0.236191
vt 0.772727 0.236191
vt 0.590909 0.236191
vt 0.409092 0.236191
vt 0.181819 0.314921
vt 0.272728 0.314921
vt 0.227273 0.393651
vt 0.000000 0.314921
vt 0.090910 0.314921
vt 0.045455 0.393651
vt 0.727273 0.314921
vt 0.818182 0.314921
vt 0.772727 0.393651
vt 0.545455 0.314921
vt 0.636364 0.314921
vt 0.590909 0.393651
vt 0.363637 0.314921
vt 0.454546 0.314921
vt 0.409092 0.393651
vt 0.500000 0.393651
vt 0.454546 0.472382
vt 0.681818 0.393651
vt 0.636364 0.472382
vt 0.863636 0.393651
vt 0.818182 0.472382
vt 0.909091 0.314921
vt 0.136365 0.393651
vt 0.090910 0.472382
vt 0.318182 0.393651
vt 0.272728 0.472382
vt 0.954545 0.236191
vt 1.000000 0.157461
vt 0.409092 0.078731
vt 0.363637 0.000000
s 0
f 1/1/1 14/2/1 13/3/1
f 2/4/2 14/5/2 16/6/2
f 1/7/3 13/8/3 18/9/3
f 1/10/4 18/11/4 20/12/4
f 1/13/5 20/14/5 17/15/5
f 2/4/6 16/6/6 23/16/6
f 3/17/7 15/18/7 25/19/7
f 4/20/8 19/21/8 27/22/8
f 5/23/9 21/24/9 29/25/9
f 6/26/10 22/27/10 31/28/10
f 2/4/11 23/16/11 26/29/11
f 3/17/12 25/19/12 28/30/12
f 4/20/13 27/22/13 30/31/13
f 5/23/14 29/25/14 32/32/14
f 6/26/15 31/28/15 24/33/15
f 7/34/16 33/35/16 38/36/16
f 8/37/17 34/38/17 40/39/17
f 9/40/18 35/41/18 41/42/18
f 10/43/19 36/44/19 42/45/19
f 11/46/20 37/47/20 39/48/20
f 39/48/21 42/49/21 12/50/21
f 39/48/22 37/47/22 42/49/22
f 37/47/23 10/43/23 42/49/23
f 42/45/24 41/51/24 12/52/24
f 42/45/25 36/44/25 41/51/25
f 36/44/26 9/40/26 41/51/26
f 41/42/27 40/53/27 12/54/27
f 41/42/28 35/41/28 40/53/28
f 35/41/29 8/55/29 40/53/29
f 40/39/30 38/56/30 12/57/30
f 40/39/31 34/38/31 38/56/31
f 34/38/32 7/34/32 38/56/32
f 38/36/33 39/58/33 12/59/33
f 38/36/34 33/35/34 39/58/34
f 33/35/35 11/46/35 39/58/35
f 24/33/36 37/47/36 11/46/36
f 24/33/37 31/28/37 37/47/37
f 31/28/38 10/43/38 37/47/38
f 32/32/39 36/44/39 10/43/39
f 32/32/40 29/25/40 36/44/40
f 29/25/41 9/40/41 36/44/41
f 30/31/42 35/41/42 9/40/42
f 30/31/43 27/22/43 35/41/43
f 27/22/44 8/55/44 35/41/44
f 28/30/45 34/38/45 8/37/45
f 28/30/46 25/19/46 34/38/46
f 25/19/47 7/34/47 34/38/47
f 26/29/48 33/35/48 7/34/48
f 26/29/49 23/16/49 33/35/49
f 23/16/50 11/46/50 33/35/50
f 31/28/51 32/32/51 10/43/51
f 31/28/52 22/27/52 32/32/52
f 22/27/53 5/23/53 32/32/53
f 29/25/54 30/31/54 9/40/54
f 29/25/55 21/24/55 30/31/55
f 21/24/56 4/20/56 30/31/56
f 27/22/57 28/60/57 8/55/57
f 27/22/58 19/21/58 28/60/58
f 19/21/59 3/61/59 28/60/59
f 25/19/60 26/29/60 7/34/60
f 25/19/61 15/18/61 26/29/61
f 15/18/62 2/4/62 26/29/62
f 23/16/63 24/33/63 11/46/63
f 23/16/64 16/6/64 24/33/64
f 16/6/65 6/26/65 24/33/65
f 17/15/66 22/27/66 6/26/66
f 17/15/67 20/14/67 22/27/67
f 20/14/68 5/23/68 22/27/68
f 20/12/69 21/24/69 5/23/69
f 20/12/70 18/11/70 21/24/70
f 18/11/71 4/20/71 21/24/71
f 18/9/72 19/21/72 4/20/72
f 18/9/73 13/8/73 19/21/73
f 13/8/74 3/61/74 19/21/74
f 16/6/75 17/62/75 6/26/75
f 16/6/76 14/5/76 17/62/76
f 14/5/77 1/63/77 17/62/77
f 13/3/78 15/18/78 3/17/78
f 13/3/79 14/2/79 15/18/79
f 14/2/80 2/4/80 15/18/80
